<?xml version="1.0"?>
<svg xmlns="http://www.w3.org/2000/svg" xmlnsXlink="http://www.w3.org/1999/xlink" xmlnsSvgjs="http://svgjs.com/svgjs" version="1.1" width="512" height="512" x="0" y="0" viewBox="0 0 128 128" style="enable-background:new 0 0 512 512" xmlSpace="preserve" class=""><g><path d="m117.52 114.7-12.72-14.84a21.51 21.51 0 1 0 -16.23 7.47 21.33 21.33 0 0 0 13.34-4.69l12.57 14.66a2 2 0 1 0 3-2.6zm-46.52-29.18a17.57 17.57 0 1 1 17.57 17.81 17.71 17.71 0 0 1 -17.57-17.81z" fill="#ffffff" data-original="#000000" class=""/><path d="m61 89.28-5 3v-36.13l32-18.47v20.17a2 2 0 0 0 4 0v-24.45a2 2 0 0 0 -1-1.74l-36-20.78a2 2 0 0 0 -2 0l-36 20.78a2 2 0 0 0 -1 1.74v41.6a2 2 0 0 0 1 1.74l36 20.74a2 2 0 0 0 2 0l8-4.75a2 2 0 0 0 -2-3.44zm-7-74.36 32.71 18.88-32.71 18.89-32.71-18.89zm-34 22.76 32 18.47v36.14l-32-18.48z" fill="#ffffff" data-original="#000000" class=""/></g></svg>
