<?xml version="1.0"?>
<svg xmlns="http://www.w3.org/2000/svg" xmlnsXlink="http://www.w3.org/1999/xlink" xmlnsSvgjs="http://svgjs.com/svgjs" version="1.1" width="512" height="512" x="0" y="0" viewBox="0 0 409.6 409.6" style="enable-background:new 0 0 512 512" xmlSpace="preserve" class=""><g>
<g>
	<g>
		<path d="M409.6,102.697V59.218C409.6,26.563,382.92,0,350.126,0H126.249C89.38,0,59.387,29.86,59.387,66.56v9.928h-8.832    c-8.791,0-15.944,7.132-15.944,15.892v21.243c0,8.76,7.153,15.892,15.944,15.892h8.832v6.374c0,2.831,2.294,5.12,5.12,5.12h54.769    v28.099H5.719c-2.826,0-5.12,2.289-5.12,5.12v59.479c0,44.933,24.315,85.914,63.672,107.699v14.357H25.457    C11.418,355.763,0,367.181,0,381.22v23.26c0,2.831,2.294,5.12,5.12,5.12h399.36c2.826,0,5.12-2.289,5.12-5.12v-23.26    c0-13.67-10.86-24.781-24.402-25.349V199.854c0-2.831-2.294-5.12-5.12-5.12h-6.932v-53.975    C394.557,138.644,409.6,123.29,409.6,102.697z M59.387,119.276h-8.832c-3.144,0-5.704-2.534-5.704-5.652V92.38    c0-3.113,2.56-5.652,5.704-5.652h8.832V119.276z M69.627,66.56c0-31.053,25.4-56.32,56.622-56.32h223.877    c27.151,0,49.234,21.97,49.234,48.973v17.275H69.627V66.56z M124.396,216.182c7.69,0,18.417,19.272,18.417,50.652    c0,31.386-10.726,50.657-18.417,50.657c-7.685,0-18.411-19.272-18.411-50.657C105.984,235.448,116.705,216.182,124.396,216.182z     M10.839,233.708v-54.359h108.436v26.209C92.6,208.573,71.68,234.87,71.68,266.778c0,33.92,23.649,61.522,52.716,61.522    s52.716-27.602,52.716-61.522c0-31.908-20.925-58.204-47.596-61.225v-26.209h108.436v54.359    c0,42.138-23.342,80.502-60.918,100.101c-1.695,0.886-2.755,2.632-2.755,4.541v17.413H74.511v-17.413    c0-1.91-1.06-3.656-2.755-4.541C34.181,314.209,10.839,275.85,10.839,233.708z M105.016,312.356    c-13.696-8.525-23.096-25.733-23.096-45.578c0-19.886,9.441-37.12,23.173-45.629c-5.796,10.982-9.354,27.08-9.354,45.676    C95.744,285.343,99.267,301.373,105.016,312.356z M143.698,221.153c13.737,8.504,23.178,25.743,23.178,45.629    c0,19.845-9.4,37.053-23.096,45.578c5.745-10.982,9.272-27.013,9.272-45.527C153.052,248.233,149.494,232.136,143.698,221.153z     M225.597,355.625c-0.041,0.041-0.056,0.097-0.097,0.138h-40.975v-14.357c39.357-21.786,63.672-62.766,63.672-107.699v-59.479    c0-2.831-2.294-5.12-5.12-5.12H129.516V141.01h152.719v53.724h-10.47c-1.423,0-2.78,0.594-3.753,1.633    c-0.968,1.044-1.459,2.447-1.352,3.866C266.737,201.318,274.104,309.202,225.597,355.625z M384.143,366.003    c8.392,0,15.217,6.825,15.217,15.217v18.14H10.24v-18.14c0-8.392,6.825-15.217,15.217-15.217H384.143z M374.963,204.974v150.789    H239.452c39.153-46.049,38.635-128.548,37.714-150.789H374.963z M292.475,194.734V164.28h70.431v30.454H292.475z M368.02,130.77    c-2.826,0-5.12,2.289-5.12,5.12v18.15h-70.426v-18.15c0-2.831-2.294-5.12-5.12-5.12H69.627V86.728H399.36v15.969    C399.36,119.229,386.473,130.77,368.02,130.77z" fill="#ffffff" data-original="#000000" class=""/>
	</g>
</g>
<g>
	<g>
		<path d="M354.565,27.223c-10.245,0-18.581,8.305-18.581,18.514s8.335,18.514,18.581,18.514s18.58-8.305,18.58-18.514    S364.81,27.223,354.565,27.223z M354.565,54.016c-4.598,0-8.341-3.712-8.341-8.274s3.743-8.274,8.341-8.274    c4.598,0,8.34,3.712,8.34,8.274S359.163,54.016,354.565,54.016z" fill="#ffffff" data-original="#000000" class=""/>
	</g>
</g>
<g>
	<g>
		<path d="M302.075,27.223c-10.245,0-18.581,8.305-18.581,18.514s8.335,18.514,18.581,18.514s18.58-8.305,18.58-18.514    S312.32,27.223,302.075,27.223z M302.075,54.016c-4.598,0-8.341-3.712-8.341-8.274s3.743-8.274,8.341-8.274    c4.598,0,8.34,3.712,8.34,8.274S306.668,54.016,302.075,54.016z" fill="#ffffff" data-original="#000000" class=""/>
	</g>
</g>
<g>
</g>
<g>
</g>
<g>
</g>
<g>
</g>
<g>
</g>
<g>
</g>
<g>
</g>
<g>
</g>
<g>
</g>
<g>
</g>
<g>
</g>
<g>
</g>
<g>
</g>
<g>
</g>
<g>
</g>
</g></svg>
