<?xml version="1.0" encoding="UTF-8"?>
<svg width="125px" height="20px" viewBox="0 0 125 28" version="1.1" xmlns="http://www.w3.org/2000/svg" xmlns:xlink="http://www.w3.org/1999/xlink">
    <title>英文logo</title>
    <g id="组件库" stroke="none" stroke-width="1" fill="none" fill-rule="evenodd">
        <g id="icon" transform="translate(-636.000000, -978.000000)" fill-rule="nonzero">
            <g id="英文logo" transform="translate(636.000000, 978.000000)">
                <path d="M2.42385119,6.13013239 L9.719169,13.3548749 L14.7228586,8.41752316 L19.7261372,13.3548749 L23.1644015,9.95188373 L21.4871894,8.27807313 L28,8.27807313 L28,14.7776754 L26.2948412,13.0759748 L19.7261372,19.547687 L14.7228586,14.6103354 L9.74711568,19.5755771 L4.43642351,14.3314353 C4.49231688,16.6746061 5.44250418,19.0177769 7.23150302,20.8031475 C10.697714,24.2623288 16.1760862,24.5129287 19.9497107,21.5840678 L23.0801505,24.7085689 C20.4806977,26.8843997 17.2384713,28 14.0237805,28 C10.4178361,28 6.84024943,26.6329794 4.10106329,23.8993485 C-0.734946206,19.0735569 -1.29387991,11.5695042 2.42385119,6.13013239 Z M4.46420608,3.73101751 C9.69146917,-1.09477413 17.6854541,-1.23463432 23.0524506,3.28477739 L19.8936532,6.3809784 C18.1609588,5.04225803 16.092493,4.37248769 13.9960806,4.37248769 C11.7040415,4.37248769 9.41200232,5.20959807 7.59505679,6.82762867 Z" id="形状结合" fill="#7650FF"></path>
                <path d="M53.2905638,21.8661911 C51.1098299,24.0061201 48.2942496,25 45.2352981,25 C37.3613601,25 34.0302171,19.6059607 34.000196,14.1206996 C33.9693743,8.60596073 37.573109,3 45.2352981,3 C48.1117212,3 50.8376385,4.08510176 53.0183723,6.22463243 L50.3528976,8.78641269 C48.9599178,7.42963717 47.0825974,6.79666112 45.2352981,6.79666112 C40.1176987,6.79666112 37.9065435,10.5945173 37.9369649,14.1206996 C37.9665858,17.6162092 39.9964134,21.2630912 45.2352981,21.2630912 C47.0825974,21.2630912 49.1716668,20.5094155 50.5654471,19.1231622 L53.2905638,21.8661911 Z M57.9536435,17.1040921 C57.9536435,19.3643224 59.3162018,21.473977 62.0112974,21.473977 C64.7067933,21.473977 66.0701522,19.3643224 66.0701522,17.1040921 C66.0701522,14.8741363 64.4946441,12.7039328 62.0112974,12.7039328 C59.3466232,12.7039328 57.9536435,14.8741363 57.9536435,17.1040921 M69.7947719,17.1040921 C69.7947719,21.3835518 66.8567054,24.8495835 62.0112974,24.8495835 C57.1658894,24.8495835 54.2586447,21.3835518 54.2586447,17.1040921 C54.2586447,12.8549069 57.2271325,9.35860073 61.9816766,9.35860073 C66.7354201,9.35860073 69.7947719,12.8549069 69.7947719,17.1040921 M72.3378002,24.518038 L76.0319987,24.518038 L76.0319987,9.59988048 L72.3378002,9.59988048 L72.3378002,24.518038 Z M76.365033,5.47139494 C76.365033,8.3343268 72.0047659,8.3343268 72.0047659,5.47139494 C72.0047659,2.6076664 76.365033,2.6076664 76.365033,5.47139494 L76.365033,5.47139494 Z M87.7214604,9.41946838 C91.2339311,9.41946838 94.0507125,12.0406026 94.0507125,16.7124357 L94.0507125,24.5180778 L90.356514,24.5180778 L90.356514,16.7431086 C90.356514,14.4824799 89.1144404,12.7648005 86.7523792,12.7648005 C84.4807809,12.7648005 82.9368951,14.6633302 82.9368951,16.9235605 L82.9368951,24.5180778 L79.2727183,24.5180778 L79.2727183,9.6301948 L82.5734397,9.6301948 L82.8160103,11.6494242 C84.3298751,10.1727457 85.8445403,9.41946838 87.7214604,9.41946838 Z M97.6231448,3.4219309 L102.62026,18.6416383 L107.768681,3.4219309 L110.372912,3.4219309 L115.67224,18.6416383 L120.517648,3.4219309 L125,3.4219309 L117.368632,24.5180778 L113.976247,24.5180778 L111.341994,17.8879626 L109.100418,11.227573 L106.890062,17.9477149 L104.316252,24.5180778 L100.923866,24.5180778 L93.1415929,3.4219309 L97.6231448,3.4219309 Z" id="形状结合" fill="#000"></path>
            </g>
        </g>
    </g>
</svg>