<svg xmlns="http://www.w3.org/2000/svg" width="230" height="157" viewBox="0 0 230 157">
    <g fill="none" fill-rule="evenodd">
        <g fill-rule="nonzero">
            <g>
                <path fill="#0DB9CB" d="M217.161 149.5c-5.892-3.557-8.98-9.417-10.54-15.365C221.05 119.928 230 100.183 230 78.352 230 35.082 194.857 0 151.502 0 108.147 0 73 35.081 73 78.352c0 43.27 35.147 78.351 78.498 78.351 11.996 0 23.362-2.69 33.534-7.494 10.503 6.638 21.883 9.563 30.32 6.688 5.098-1.733 4.813-4.584 1.81-6.397z" transform="translate(-93 -261) translate(93 261)"/>
                <g fill="#FFF">
                    <path d="M70 44.644v11.604c-12.206 0-22.777-6.517-27.76-15.948l-6.993 6.252c-.46-4.309-1.829-8.38-3.923-12.03l7.847-7.016c-.38-8.817-8.837-15.902-19.199-15.902V0c16.98 0 30.795 12.619 30.795 28.13C50.763 37.237 59.39 44.643 70 44.643z" transform="translate(-93 -261) translate(93 261) translate(116 39)"/>
                    <path d="M50.028 66.305V77.92c-13.356 0-24.746-7.812-29-18.688L0 78V62.469l18.659-16.641C16.575 38.628 9.017 33.275 0 33.275V21.661c16.98 0 30.794 12.619 30.794 28.13 0 9.104 8.628 16.514 19.234 16.514zM70 0v15.521h-.01L55.415 28.546c0-.14-.025-.277-.025-.417 0-4.484-.979-8.747-2.738-12.643L70 0z" transform="translate(-93 -261) translate(93 261) translate(116 39)"/>
                </g>
                <path fill="#0DB9CB" d="M61.964 78.398c0-7.525.939-14.833 2.694-21.811C59.718 54.907 54.427 54 48.922 54 21.903 54 0 75.91 0 102.932c0 14.791 6.563 28.05 16.931 37.023-1.563 2.993-3.746 5.822-6.787 8.219-1.283 1.01-4.829 5.99.252 7.725 7.761 2.65 18.028.364 27.797-5.215 3.451.774 7.043 1.184 10.729 1.184 13.76 0 26.192-5.685 35.078-14.833-13.718-15.663-22.036-36.174-22.036-58.637z" transform="translate(-93 -261) translate(93 261)"/>
            </g>
        </g>
    </g>
</svg>
