<?xml version="1.0" encoding="utf-8"?>
<!-- Generator: Adobe Illustrator 25.2.0, SVG Export Plug-In . SVG Version: 6.00 Build 0)  -->
<svg version="1.1" id="Layer_1" xmlns="http://www.w3.org/2000/svg" xmlns:xlink="http://www.w3.org/1999/xlink" x="0px" y="0px"
	 viewBox="0 0 200 200" style="enable-background:new 0 0 200 200;" xml:space="preserve">
<style type="text/css">
	.st0{fill:#FFFFFF;}
	.st1{fill:#0DB9CB;}
</style>
<g>
	<path class="st0" d="M156.75,135.63c-3.27-1.98-4.99-5.24-5.86-8.56c8.02-7.91,13-18.91,13-31.07c0-24.1-19.54-43.64-43.64-43.64
		S76.62,71.91,76.62,96.01s19.54,43.64,43.64,43.64c6.67,0,12.99-1.5,18.64-4.17c5.84,3.7,12.17,5.33,16.85,3.73
		C158.58,138.23,158.42,136.64,156.75,135.63z"/>
	<g>
		<g>
			<g>
				<g>
					<g>
						<g>
							<g>
								<path class="st1" d="M139.88,99.32v6.47c-6.84,0-12.77-3.64-15.56-8.9l-3.92,3.49c-0.26-2.41-1.03-4.68-2.2-6.71l4.4-3.91
									c-0.21-4.92-4.95-8.87-10.76-8.87v-6.47c9.52,0,17.26,7.04,17.26,15.7C129.09,95.19,133.93,99.32,139.88,99.32z"/>
								<path class="st1" d="M128.68,111.41v6.48c-7.49,0-13.87-4.36-16.26-10.43l-11.79,10.47v-8.67l10.46-9.29
									c-1.17-4.02-5.4-7-10.46-7V86.5c9.52,0,17.26,7.04,17.26,15.7C117.9,107.27,122.74,111.41,128.68,111.41z"/>
							</g>
						</g>
					</g>
				</g>
				<path class="st1" d="M139.88,74.41c0,0.01,0,0.01,0,0.01v8.65h-0.01l-8.17,7.27c0-0.08-0.01-0.15-0.01-0.23
					c0-2.5-0.55-4.88-1.53-7.05L139.88,74.41z"/>
			</g>
		</g>
	</g>
	<path class="st0" d="M70.65,96.01c0-4.19,0.52-8.27,1.5-12.15c-2.75-0.93-5.7-1.44-8.77-1.44c-15.06,0-27.27,12.21-27.27,27.27
		c0,8.24,3.66,15.63,9.44,20.63c-0.87,1.67-2.09,3.24-3.78,4.58c-0.71,0.56-2.69,3.34,0.14,4.31c4.33,1.48,10.05,0.2,15.49-2.91
		c1.92,0.43,3.93,0.66,5.98,0.66c7.67,0,14.6-3.17,19.55-8.27C75.28,119.96,70.65,108.53,70.65,96.01z"/>
</g>
</svg>
