<?xml version="1.0" encoding="utf-8"?>
<!-- Generator: Adobe Illustrator 25.3.1, SVG Export Plug-In . SVG Version: 6.00 Build 0)  -->
<svg version="1.1" id="Layer_1" xmlns="http://www.w3.org/2000/svg" xmlns:xlink="http://www.w3.org/1999/xlink" x="0px" y="0px"
	 viewBox="0 0 525 175" style="enable-background:new 0 0 525 175;" xml:space="preserve">
<style type="text/css">
	.st0{fill:#0DB9CB;}
	.st1{fill:#FFFFFF;}
	.st2{enable-background:new    ;}
	.st3{fill:#3D3D3D;}
</style>
<g>
	<g>
		<path class="st0" d="M169.6,126.7c-3.2-2-4.9-5.2-5.8-8.5c8-7.9,12.9-18.9,12.9-31.1c-0.1-23.6-19.3-42.8-42.9-43
			C109.9,43.9,90.5,63,90.1,86.8c-0.3,23.5,19,43.4,42.5,43.9c6.9,0.1,13.4-1.4,19.3-4.1c5.8,3.7,12.1,5.3,16.7,3.7
			C171.5,129.3,171.3,127.7,169.6,126.7z"/>
		<g>
			<g>
				<g>
					<g>
						<g>
							<g>
								<g>
									<g>
										<path class="st1" d="M152.9,90.7v6.4c-6.8,0-12.7-3.6-15.4-8.8l-3.9,3.5c-0.3-2.4-1-4.6-2.2-6.7l4.4-3.9
											c-0.2-4.9-4.9-8.8-10.7-8.8V66c9.4,0,17.1,7,17.1,15.6C142.2,86.6,147,90.7,152.9,90.7z"/>
										<path class="st1" d="M141.8,102.7v6.4c-7.4,0-13.8-4.3-16.1-10.3L114,109.2v-8.6l10.4-9.2c-1.2-4-5.4-6.9-10.4-6.9v-6.4
											c9.4,0,17.1,7,17.1,15.6C131.1,98.6,135.9,102.7,141.8,102.7z"/>
									</g>
								</g>
							</g>
						</g>
						<path class="st1" d="M152.9,66L152.9,66v8.6l0,0l-8.1,7.2l0,0c0-2.6-0.5-5-1.5-7.2L152.9,66z"/>
					</g>
				</g>
			</g>
		</g>
		<path class="st0" d="M84.3,87.4c0-4.2,0.5-8.2,1.5-12.1c-2.8-0.9-5.8-1.5-8.9-1.4C62.3,74,50.3,86,50.1,100.6
			c-0.1,8.3,3.6,15.8,9.4,20.8c-0.9,1.6-2.1,3.2-3.8,4.5c-0.7,0.6-2.7,3.3,0.1,4.3c4.3,1.5,10,0.2,15.4-2.9c1.9,0.4,3.9,0.6,5.9,0.6
			c7.6,0,14.5-3.1,19.4-8.2C88.8,111.2,84.3,99.8,84.3,87.4z"/>
	</g>
	<g class="st2">
		<path class="st3" d="M190.5,78l0.3,3.5c2.2-2.7,5.2-4,8.9-4c4,0,6.7,1.6,8.2,4.7c2.2-3.2,5.3-4.7,9.3-4.7c3.4,0,5.9,1,7.5,2.9
			s2.5,4.9,2.5,8.8V109h-8.3V89.2c0-1.8-0.3-3-1-3.9s-1.9-1.2-3.6-1.2c-2.5,0-4.2,1.2-5.2,3.6V109h-8.3V89.2c0-1.8-0.4-3.1-1.1-3.9
			c-0.7-0.8-1.9-1.2-3.6-1.2c-2.4,0-4.1,1-5.1,2.9v21.9h-8.3v-31L190.5,78L190.5,78z"/>
		<path class="st3" d="M247.8,109.6c-4.6,0-8.3-1.4-11.1-4.2s-4.3-6.5-4.3-11.2v-0.7c0-3.1,0.6-5.9,1.8-8.4c1.2-2.5,2.9-4.3,5.1-5.7
			c2.2-1.3,4.7-2,7.6-2c4.2,0,7.6,1.3,10,4s3.7,6.5,3.7,11.4v3.4h-19.8c0.3,2,1.1,3.7,2.4,4.9c1.3,1.2,3.1,1.8,5.1,1.8
			c3.2,0,5.7-1.2,7.5-3.5l4.1,4.6c-1.2,1.8-2.9,3.1-5,4.1S250.4,109.6,247.8,109.6z M246.9,84.2c-1.6,0-3,0.6-4,1.7s-1.7,2.7-2,4.8
			h11.5V90c0-1.8-0.5-3.3-1.5-4.3C250,84.7,248.6,84.2,246.9,84.2z"/>
		<path class="st3" d="M282.1,100.5c0-1-0.5-1.8-1.5-2.4s-2.6-1.1-4.8-1.6c-7.4-1.5-11.1-4.7-11.1-9.4c0-2.8,1.1-5.1,3.4-6.9
			s5.3-2.8,9-2.8c3.9,0,7.1,0.9,9.4,2.8c2.4,1.9,3.5,4.3,3.5,7.2h-8.3c0-1.2-0.4-2.2-1.1-2.9s-2-1.2-3.6-1.2c-1.4,0-2.5,0.3-3.2,0.9
			c-0.8,0.6-1.1,1.4-1.1,2.4c0,0.9,0.4,1.7,1.3,2.2c0.9,0.6,2.3,1.1,4.4,1.5s3.8,0.9,5.2,1.4c4.4,1.6,6.6,4.4,6.6,8.3
			c0,2.8-1.2,5.1-3.6,6.9s-5.6,2.6-9.4,2.6c-2.6,0-4.9-0.5-6.9-1.4s-3.6-2.2-4.7-3.8c-1.1-1.6-1.7-3.4-1.7-5.2h7.9
			c0.1,1.5,0.6,2.6,1.6,3.4s2.4,1.2,4.1,1.2c1.6,0,2.8-0.3,3.6-0.9C281.7,102.3,282.1,101.5,282.1,100.5z"/>
		<path class="st3" d="M312.3,100.5c0-1-0.5-1.8-1.5-2.4s-2.6-1.1-4.8-1.6c-7.4-1.5-11.1-4.7-11.1-9.4c0-2.8,1.1-5.1,3.4-6.9
			s5.3-2.8,9-2.8c3.9,0,7.1,0.9,9.5,2.8s3.5,4.3,3.5,7.2H312c0-1.2-0.4-2.2-1.1-2.9c-0.8-0.8-2-1.2-3.6-1.2c-1.4,0-2.5,0.3-3.2,0.9
			c-0.8,0.6-1.1,1.4-1.1,2.4c0,0.9,0.4,1.7,1.3,2.2c0.9,0.6,2.3,1.1,4.4,1.5s3.8,0.9,5.2,1.4c4.4,1.6,6.6,4.4,6.6,8.3
			c0,2.8-1.2,5.1-3.6,6.9s-5.6,2.6-9.4,2.6c-2.6,0-4.9-0.5-6.9-1.4s-3.6-2.2-4.7-3.8c-1.1-1.6-1.7-3.4-1.7-5.2h7.9
			c0.1,1.5,0.6,2.6,1.6,3.4s2.4,1.2,4.1,1.2c1.6,0,2.8-0.3,3.6-0.9S312.3,101.5,312.3,100.5z"/>
	</g>
	<g class="st2">
		<path class="st3" d="M340,109.6c-4.6,0-8.3-1.4-11.1-4.2c-2.9-2.8-4.3-6.5-4.3-11.2v-0.7c0-3.1,0.6-5.9,1.8-8.4
			c1.2-2.5,2.9-4.3,5.1-5.7c2.2-1.3,4.7-2,7.6-2c4.2,0,7.6,1.3,10,4s3.7,6.5,3.7,11.4v3.4H333c0.3,2,1.1,3.7,2.4,4.9
			c1.3,1.2,3.1,1.8,5.1,1.8c3.2,0,5.7-1.2,7.5-3.5l4.1,4.6c-1.2,1.8-2.9,3.1-5,4.1C344.9,109.2,342.5,109.6,340,109.6z M339,84.2
			c-1.6,0-3,0.6-4,1.7s-1.7,2.7-2,4.8h11.5V90c0-1.8-0.5-3.3-1.5-4.3C342.1,84.7,340.8,84.2,339,84.2z"/>
	</g>
	<g class="st2">
		<path class="st3" d="M366.2,78l0.3,3.6c2.2-2.8,5.2-4.2,8.9-4.2c3.3,0,5.7,1,7.3,2.9c1.6,1.9,2.4,4.8,2.5,8.7v20h-8.3V89.2
			c0-1.8-0.4-3-1.1-3.8c-0.8-0.8-2-1.2-3.8-1.2c-2.3,0-4.1,1-5.2,3v21.9h-8.3v-31L366.2,78L366.2,78z"/>
		<path class="st3" d="M390.3,93.3c0-4.8,1.1-8.6,3.4-11.5s5.3-4.4,9.2-4.4c3.4,0,6.1,1.2,7.9,3.5l0.3-2.9h7.5v30
			c0,2.7-0.6,5.1-1.8,7.1c-1.2,2-3,3.5-5.2,4.6c-2.2,1.1-4.9,1.6-7.9,1.6c-2.3,0-4.5-0.5-6.7-1.4s-3.8-2.1-4.9-3.5l3.7-5
			c2.1,2.3,4.6,3.5,7.5,3.5c2.2,0,3.9-0.6,5.1-1.8s1.8-2.8,1.8-5v-1.7c-1.9,2.2-4.4,3.2-7.5,3.2c-3.7,0-6.7-1.5-9-4.4
			s-3.5-6.8-3.5-11.6v-0.3H390.3z M398.6,93.9c0,2.8,0.6,5,1.7,6.6s2.7,2.4,4.6,2.4c2.5,0,4.3-0.9,5.4-2.8v-13
			c-1.1-1.9-2.9-2.8-5.4-2.8c-2,0-3.6,0.8-4.7,2.4C399.1,88.3,398.6,90.7,398.6,93.9z"/>
		<path class="st3" d="M439.3,109.6c-4.6,0-8.3-1.4-11.1-4.2s-4.3-6.5-4.3-11.2v-0.7c0-3.1,0.6-5.9,1.8-8.4c1.2-2.5,2.9-4.3,5.1-5.7
			s4.7-2,7.6-2c4.2,0,7.6,1.3,10,4s3.7,6.5,3.7,11.4v3.4h-19.8c0.3,2,1.1,3.7,2.4,4.9c1.3,1.2,3.1,1.8,5.1,1.8
			c3.2,0,5.7-1.2,7.5-3.5l4.1,4.6c-1.2,1.8-2.9,3.1-5,4.1S441.9,109.6,439.3,109.6z M438.3,84.2c-1.6,0-3,0.6-4,1.7s-1.7,2.7-2,4.8
			h11.5V90c0-1.8-0.5-3.3-1.5-4.3S440.1,84.2,438.3,84.2z"/>
		<path class="st3" d="M474.2,85.8c-1.1-0.2-2.1-0.2-3-0.2c-3.1,0-5.2,1.1-6.2,3.2v20.3h-8.3v-31h7.8l0.2,3.7c1.7-2.8,4-4.3,6.9-4.3
			c0.9,0,1.8,0.1,2.6,0.4V85.8z"/>
	</g>
</g>
</svg>
